<mxfile host="app.diagrams.net" modified="2021-06-18T12:10:19.788Z" agent="5.0 (Windows NT 10.0; Win64; x64) AppleWebKit/537.36 (KHTML, like Gecko) Chrome/91.0.4472.114 Safari/537.36" etag="eGYPXrWY4X0KNks-8258" version="14.8.0" type="github">
  <diagram id="6ir-iUJybDonLYdV4ZPh" name="Page-1">
    <mxGraphModel dx="868" dy="460" grid="1" gridSize="10" guides="1" tooltips="1" connect="1" arrows="1" fold="1" page="1" pageScale="1" pageWidth="827" pageHeight="1169" math="0" shadow="0">
      <root>
        <mxCell id="0" />
        <mxCell id="1" parent="0" />
        <mxCell id="FarxpKgZHKkkfBqwm3aO-5" value="Client A" style="shape=umlLifeline;perimeter=lifelinePerimeter;whiteSpace=wrap;html=1;container=1;collapsible=0;recursiveResize=0;outlineConnect=0;" parent="1" vertex="1">
          <mxGeometry x="20" y="30" width="100" height="120" as="geometry" />
        </mxCell>
        <mxCell id="eP_eM6IWY2FScYJMLibp-1" value="&lt;font style=&quot;font-size: 10px ; background-color: rgb(255 , 255 , 255)&quot;&gt;logout form the app&lt;/font&gt;" style="text;html=1;align=center;verticalAlign=middle;resizable=0;points=[];autosize=1;strokeColor=none;" vertex="1" parent="FarxpKgZHKkkfBqwm3aO-5">
          <mxGeometry y="100" width="100" height="20" as="geometry" />
        </mxCell>
        <mxCell id="FarxpKgZHKkkfBqwm3aO-7" value="Server" style="shape=umlLifeline;perimeter=lifelinePerimeter;whiteSpace=wrap;html=1;container=1;collapsible=0;recursiveResize=0;outlineConnect=0;" parent="1" vertex="1">
          <mxGeometry x="363.5" y="30" width="100" height="120" as="geometry" />
        </mxCell>
        <mxCell id="ew0XSLaMeLpF_alBr4-t-2" value="" style="endArrow=classic;html=1;" parent="1" edge="1">
          <mxGeometry width="50" height="50" relative="1" as="geometry">
            <mxPoint x="69.5" y="112" as="sourcePoint" />
            <mxPoint x="413" y="112" as="targetPoint" />
          </mxGeometry>
        </mxCell>
        <mxCell id="ew0XSLaMeLpF_alBr4-t-9" value="M1: 1, {1, &quot;logout&quot;} &lt;sub&gt;SA&lt;/sub&gt;" style="edgeLabel;html=1;align=center;verticalAlign=middle;resizable=0;points=[];" parent="ew0XSLaMeLpF_alBr4-t-2" vertex="1" connectable="0">
          <mxGeometry x="-0.0597" y="-1" relative="1" as="geometry">
            <mxPoint x="1" y="-10" as="offset" />
          </mxGeometry>
        </mxCell>
        <mxCell id="eP_eM6IWY2FScYJMLibp-2" value="&lt;font style=&quot;font-size: 10px ; background-color: rgb(255 , 255 , 255)&quot;&gt;remove client A from online user&lt;/font&gt;" style="text;html=1;align=center;verticalAlign=middle;resizable=0;points=[];autosize=1;strokeColor=none;" vertex="1" parent="1">
          <mxGeometry x="330" y="136" width="160" height="20" as="geometry" />
        </mxCell>
        <mxCell id="eP_eM6IWY2FScYJMLibp-3" value="&lt;font style=&quot;font-size: 10px ; background-color: rgb(255 , 255 , 255)&quot;&gt;remove SA&lt;/font&gt;" style="text;html=1;align=center;verticalAlign=middle;resizable=0;points=[];autosize=1;strokeColor=none;" vertex="1" parent="1">
          <mxGeometry x="384" y="120" width="60" height="20" as="geometry" />
        </mxCell>
      </root>
    </mxGraphModel>
  </diagram>
</mxfile>
